
        <svg xmlns="http://www.w3.org/2000/svg" xmlns:xlink="http://www.w3.org/1999/xlink" version="1.1" width="3135.389979385946" 
        height="611.9805845725183" viewBox="0 0 3135.389979385946 611.9805845725183">
			
			<g transform="scale(6.769498969297287) translate(10, 10)">
				<defs id="SvgjsDefs3996"></defs><g id="SvgjsG3997" featureKey="nameLeftFeature-0" transform="matrix(2.7949002017667146,0,0,2.7949002017667146,-3.657126391588536,-1.3042079827214152)" fill="#ffffff"><path d="M8.0273 20.18555 c-3.7695 0 -6.7188 -2.6172 -6.7188 -7.002 c0 -4.375 2.9492 -6.9922 6.7188 -6.9922 c2.5879 0 4.7852 1.25 5.8789 3.4375 l-1.2305 0.54688 c-0.9082 -1.7188 -2.6367 -2.6563 -4.6484 -2.6563 c-2.9785 0 -5.3711 2.0313 -5.3711 5.6641 c0 3.6426 2.3926 5.6738 5.3711 5.6738 c2.0117 0 3.7402 -0.9375 4.6484 -2.6563 l1.2305 0.54688 c-1.0938 2.1875 -3.291 3.4375 -5.8789 3.4375 z M21.22075 20.18555 c-2.8027 0 -4.7559 -1.3379 -5.2441 -3.4961 l1.3574 -0.33203 c0.37109 1.6309 1.9141 2.6074 3.9258 2.6074 c1.6406 0 3.3398 -0.64453 3.3008 -2.5781 c-0.029297 -1.8359 -1.9434 -2.3047 -3.916 -2.8125 c-2.1777 -0.55664 -4.2871 -1.1719 -4.2871 -3.6816 c0 -2.5195 2.1094 -3.7012 4.4238 -3.7012 c2.4023 0 4.4043 1.0352 4.9023 3.2129 l-1.3184 0.3418 c-0.39063 -1.6016 -1.875 -2.334 -3.5547 -2.334 c-1.4941 0 -3.0859 0.67383 -3.0859 2.4902 c0 1.6406 1.6211 2.0996 3.457 2.5586 c2.2461 0.55664 4.7559 1.1523 4.7559 3.9063 c0 2.6855 -2.2266 3.8184 -4.7168 3.8184 z"></path></g><g id="SvgjsG3998" featureKey="inlineSymbolFeature-0" transform="matrix(1.0368578388041865,0,0,1.0368578388041865,80.60144814368215,-17.41921090085058)" fill="#ffffff"><g xmlns="http://www.w3.org/2000/svg"><path fill="#ffffff" d="M81.3,71.1h-69c-2.3,0-4.2-1.9-4.2-4.2V21c0-2.3,1.9-4.2,4.2-4.2h70.1c2.3,0,4.2,1.9,4.2,4.2v43.9   c0,0.6-0.4,1-1,1c-0.6,0-1-0.4-1-1V21c0-1.2-1-2.2-2.2-2.2H12.3c-1.2,0-2.2,1-2.2,2.2v45.9c0,1.2,1,2.2,2.2,2.2h69c0.6,0,1,0.4,1,1   C82.3,70.6,81.9,71.1,81.3,71.1z"></path><path fill="#ffffff" d="M55.2,60.4H13.7c-0.6,0-1-0.4-1-1V23.7c0-1.5,1.3-2.8,2.8-2.8h63.1c1.5,0,2.8,1.3,2.8,2.8v17.6   c0,0.6-0.4,1-1,1c-0.6,0-1-0.4-1-1V23.7c0-0.4-0.4-0.8-0.8-0.8H15.5c-0.4,0-0.8,0.4-0.8,0.8v34.6h40.5c0.6,0,1,0.4,1,1   C56.2,59.9,55.8,60.4,55.2,60.4z"></path><path fill="#ffffff" d="M63.7,84.7H29.2c-0.7,0-1.4,0-1.9-0.6c-0.5-0.6-0.4-1.3-0.3-1.8c0.2-1.5,2-2,3.1-2.3l0.2-0.1   c0.4-0.1,0.9-0.3,1.3-0.4c4-1.1,6.6-1.9,7-6l0-3.5c0-0.6,0.4-1,1-1h13.8c0.6,0,1,0.4,1,1v3.8c0.4,3.6,2.7,4.4,7,5.6   c0.4,0.1,0.9,0.2,1.3,0.4l0.2,0.1c1.1,0.3,2.8,0.8,3.1,2.3c0.1,0.5,0.2,1.2-0.3,1.8C65.1,84.6,64.3,84.7,63.7,84.7z M28.9,82.7   c0.1,0,0.2,0,0.3,0h34.5c0.1,0,0.2,0,0.2,0c0,0,0-0.1,0-0.1c-0.1-0.1-0.7-0.4-1.6-0.7l-0.2-0.1c-0.4-0.1-0.9-0.3-1.3-0.4   c-4-1.1-7.8-2.2-8.4-7.4c0,0,0-0.1,0-0.1v-2.9H40.5v2.6c-0.5,5.5-4.3,6.6-8.4,7.8c-0.4,0.1-0.9,0.2-1.3,0.4l-0.2,0.1   C29.6,82.2,29,82.4,28.9,82.7C28.9,82.6,28.9,82.7,28.9,82.7z"></path><path fill="#ffffff" d="M75.1,30.9H19c-0.6,0-1-0.4-1-1s0.4-1,1-1h56.1c0.6,0,1,0.4,1,1S75.6,30.9,75.1,30.9z"></path><path fill="#ffffff" d="M56.3,37.8H19c-0.6,0-1-0.4-1-1c0-0.6,0.4-1,1-1h37.3c0.6,0,1,0.4,1,1C57.3,37.4,56.8,37.8,56.3,37.8z"></path><path fill="#ffffff" d="M33.6,45H19c-0.6,0-1-0.4-1-1c0-0.6,0.4-1,1-1h14.7c0.6,0,1,0.4,1,1C34.6,44.5,34.2,45,33.6,45z"></path><path fill="#ffffff" d="M44.5,51.8H19c-0.6,0-1-0.4-1-1c0-0.6,0.4-1,1-1h25.5c0.6,0,1,0.4,1,1C45.5,51.3,45,51.8,44.5,51.8z"></path><g><path fill="#ffffff" d="M88.8,76.7c-1.2,0-2.3-0.5-3.1-1.3c-0.1-0.1-0.1-0.1-0.2-0.2c0,0-0.1-0.1-0.1-0.1l-9.9-11.8    c-2.6,1.6-5.5,2.4-8.6,2.4c-4.6,0-8.9-1.9-12-5.2c-3-3.2-4.6-7.4-4.5-11.8c0.1-4.4,2-8.5,5.2-11.5c3.1-2.9,7.1-4.5,11.3-4.5    c4.6,0,9,1.9,12.1,5.2c5.4,5.8,6,14.4,1.5,20.8l11.1,10.8c0,0,0,0,0,0c0.1,0.1,0.2,0.2,0.3,0.3c0.8,0.8,1.2,1.9,1.1,3    c0,1.1-0.5,2.2-1.3,2.9C90.9,76.3,89.8,76.7,88.8,76.7z M87,73.8C87,73.8,87,73.8,87,73.8l0.2,0.2c0.8,0.9,2.2,0.9,3.1,0.1    c0.4-0.4,0.7-0.9,0.7-1.5c0-0.6-0.2-1.1-0.6-1.6c-0.1-0.1-0.1-0.1-0.2-0.2c0,0,0,0-0.1-0.1L78.4,59.4C78.1,59,78,58.4,78.3,58    c4.5-5.7,4.1-13.6-0.8-18.9c-2.8-3-6.5-4.6-10.6-4.6c-3.7,0-7.2,1.4-9.9,3.9c-2.8,2.7-4.5,6.3-4.6,10.1c-0.1,3.9,1.3,7.6,3.9,10.4    c2.8,3,6.5,4.6,10.6,4.6c3,0,5.8-0.9,8.2-2.5c0.4-0.3,1-0.2,1.3,0.2l10.4,12.4C86.9,73.7,87,73.7,87,73.8z"></path><path fill="#ffffff" d="M66.8,61.5c-3.5,0-6.8-1.5-9.2-4c-4.8-5.1-4.5-13.1,0.6-17.8c2.3-2.2,5.4-3.4,8.6-3.4c3.5,0,6.8,1.5,9.2,4    c2.3,2.5,3.5,5.7,3.4,9c-0.1,3.4-1.5,6.5-4,8.8C73.1,60.3,70.1,61.5,66.8,61.5z M66.8,38.3c-2.7,0-5.3,1-7.3,2.9    c-4.3,4-4.5,10.7-0.5,15c2,2.2,4.8,3.4,7.7,3.4c2.7,0,5.3-1,7.3-2.9c2.1-1.9,3.3-4.6,3.4-7.4c0.1-2.8-0.9-5.5-2.9-7.6    C72.6,39.5,69.8,38.3,66.8,38.3z"></path></g></g></g><g id="SvgjsG3999" featureKey="nameRightFeature-0" transform="matrix(2.7949002017667146,0,0,2.7949002017667146,176.14749357691917,-1.3042066500091458)" fill="#ffffff"><path d="M7.4609125 20 l0 -13.623 l1.3574 0 l0 13.623 l-1.3574 0 z M22.460984375000002 6.377000000000001 l1.3379 0 l0 13.623 l-1.3281 0 l-7.8027 -11.455 l0 11.455 l-1.3184 0 l0 -13.623 l1.3184 0 l7.793 11.406 l0 -11.406 z M32.45121875 20.18555 c-2.8027 0 -4.7559 -1.3379 -5.2441 -3.4961 l1.3574 -0.33203 c0.37109 1.6309 1.9141 2.6074 3.9258 2.6074 c1.6406 0 3.3398 -0.64453 3.3008 -2.5781 c-0.029297 -1.8359 -1.9434 -2.3047 -3.916 -2.8125 c-2.1777 -0.55664 -4.2871 -1.1719 -4.2871 -3.6816 c0 -2.5195 2.1094 -3.7012 4.4238 -3.7012 c2.4023 0 4.4043 1.0352 4.9023 3.2129 l-1.3184 0.3418 c-0.39063 -1.6016 -1.875 -2.334 -3.5547 -2.334 c-1.4941 0 -3.0859 0.67383 -3.0859 2.4902 c0 1.6406 1.6211 2.0996 3.457 2.5586 c2.2461 0.55664 4.7559 1.1523 4.7559 3.9063 c0 2.6855 -2.2266 3.8184 -4.7168 3.8184 z M40.6640375 20 l0 -13.623 l1.3574 0 l0 13.623 l-1.3574 0 z M52.304709375 20.18555 c-3.7598 0 -6.709 -2.5488 -6.709 -6.9629 c0 -4.4336 2.9492 -7.0313 6.7188 -7.0313 c2.4219 0 4.5508 1.0645 5.7227 3.1641 l-1.2012 0.64453 c-0.94727 -1.7188 -2.6367 -2.5098 -4.5215 -2.5098 c-2.998 0 -5.3516 2.0313 -5.3516 5.7129 s2.3438 5.7031 5.3906 5.7031 c2.666 0 4.6191 -1.5723 4.8926 -4.5117 l-4.9023 0 l0 -1.1914 l6.25 0 l0 6.7969 l-1.1426 0 l0 -2.793 c-0.91797 1.9043 -2.7344 2.9785 -5.1465 2.9785 z M71.094015625 6.377000000000001 l1.3574 0 l0 13.623 l-1.3574 0 l0 -6.2012 l-7.2852 0 l0 6.2012 l-1.377 0 l0 -13.623 l1.377 0 l0 6.1816 l7.2852 0 l0 -6.1816 z M83.837896875 6.377000000000001 l0 1.25 l-3.584 0 l0 12.373 l-1.3477 0 l0 -12.373 l-3.584 0 l0 -1.25 l8.5156 0 z M90.820359375 20.18555 c-2.8027 0 -4.7559 -1.3379 -5.2441 -3.4961 l1.3574 -0.33203 c0.37109 1.6309 1.9141 2.6074 3.9258 2.6074 c1.6406 0 3.3398 -0.64453 3.3008 -2.5781 c-0.029297 -1.8359 -1.9434 -2.3047 -3.916 -2.8125 c-2.1777 -0.55664 -4.2871 -1.1719 -4.2871 -3.6816 c0 -2.5195 2.1094 -3.7012 4.4238 -3.7012 c2.4023 0 4.4043 1.0352 4.9023 3.2129 l-1.3184 0.3418 c-0.39063 -1.6016 -1.875 -2.334 -3.5547 -2.334 c-1.4941 0 -3.0859 0.67383 -3.0859 2.4902 c0 1.6406 1.6211 2.0996 3.457 2.5586 c2.2461 0.55664 4.7559 1.1523 4.7559 3.9063 c0 2.6855 -2.2266 3.8184 -4.7168 3.8184 z"></path></g>
			</g>
		</svg>
	